<svg version="1.1" xmlns="http://www.w3.org/2000/svg" xmlns:xlink="http://www.w3.org/1999/xlink" width="19" height="19"><defs/><g><path fill="rgb(47,50,84)" stroke="none" paint-order="stroke fill markers" fill-rule="evenodd" d=" M 5.000144720077515 6.0000200271606445 C 5.000144720077515 6.0000200271606445 1.0000219345092773 9.99997329711914 1.0000219345092773 9.99997329711914 C 1.0000219345092773 9.99997329711914 5.000144720077515 14.000019550323486 5.000144720077515 14.000019550323486 C 5.000144720077515 14.000019550323486 5.000144720077515 11.00000810623169 5.000144720077515 11.00000810623169 C 5.000144720077515 11.00000810623169 10.999832153320312 11.00000810623169 10.999832153320312 11.00000810623169 C 10.999832153320312 11.00000810623169 10.999832153320312 9.000031471252441 10.999832153320312 9.000031471252441 C 10.999832153320312 9.000031471252441 5.000144720077515 9.000031471252441 5.000144720077515 9.000031471252441 C 5.000144720077515 9.000031471252441 5.000144720077515 6.0000200271606445 5.000144720077515 6.0000200271606445 Z M 16.000068426132202 17.999972820281982 C 16.000068426132202 17.999972820281982 7.000040531158447 17.999972820281982 7.000040531158447 17.999972820281982 C 6.399972438812256 17.999972820281982 6.000258207321167 17.599958896636963 6.000258207321167 17.000030994415283 C 6.000258207321167 17.000030994415283 6.000258207321167 14.000019550323486 6.000258207321167 14.000019550323486 C 6.000258207321167 14.000019550323486 8.0001540184021 14.000019550323486 8.0001540184021 14.000019550323486 C 8.0001540184021 14.000019550323486 8.0001540184021 15.999996185302734 8.0001540184021 15.999996185302734 C 8.0001540184021 15.999996185302734 14.99995493888855 15.999996185302734 14.99995493888855 15.999996185302734 C 14.99995493888855 15.999996185302734 14.99995493888855 4.0000433921813965 14.99995493888855 4.0000433921813965 C 14.99995493888855 4.0000433921813965 8.0001540184021 4.0000433921813965 8.0001540184021 4.0000433921813965 C 8.0001540184021 4.0000433921813965 8.0001540184021 6.0000200271606445 8.0001540184021 6.0000200271606445 C 8.0001540184021 6.0000200271606445 6.000258207321167 6.0000200271606445 6.000258207321167 6.0000200271606445 C 6.000258207321167 6.0000200271606445 6.000258207321167 3.0000085830688477 6.000258207321167 3.0000085830688477 C 6.000258207321167 2.3999876976013184 6.399972438812256 1.9999737739562988 7.000040531158447 1.9999737739562988 C 7.000040531158447 1.9999737739562988 16.000068426132202 1.9999737739562988 16.000068426132202 1.9999737739562988 C 16.600136518478394 1.9999737739562988 17.000181913375854 2.3999876976013184 17.000181913375854 3.0000085830688477 C 17.000181913375854 3.0000085830688477 17.000181913375854 17.000030994415283 17.000181913375854 17.000030994415283 C 17.000181913375854 17.599958896636963 16.600136518478394 17.999972820281982 16.000068426132202 17.999972820281982 Z"/></g></svg>