<svg version="1.1" xmlns="http://www.w3.org/2000/svg" xmlns:xlink="http://www.w3.org/1999/xlink" width="17" height="17"><defs/><g><path fill="rgb(133,179,43)" stroke="none" paint-order="stroke fill markers" fill-rule="evenodd" d=" M 10.855911493301392 1.743647575378418 C 10.855911493301392 1.743647575378418 3.0510523319244385 1.743647575378418 3.0510523319244385 1.743647575378418 C 3.0510523319244385 1.743647575378418 3.0510523319244385 3.694808006286621 3.0510523319244385 3.694808006286621 C 3.0510523319244385 3.694808006286621 10.855911493301392 3.694808006286621 10.855911493301392 3.694808006286621 C 12.514708995819092 3.694808006286621 13.782733678817749 4.963099479675293 13.782733678817749 6.621641635894775 C 13.782733678817749 8.280183792114258 12.514708995819092 9.54847526550293 10.855911493301392 9.54847526550293 C 10.855911493301392 9.54847526550293 5.392708778381348 9.54847526550293 5.392708778381348 9.54847526550293 C 5.392708778381348 9.54847526550293 8.319530963897705 6.621641635894775 8.319530963897705 6.621641635894775 C 8.319530963897705 6.621641635894775 6.953481912612915 5.255810737609863 6.953481912612915 5.255810737609863 C 6.953481912612915 5.255810737609863 1.6853344440460205 10.52414846420288 1.6853344440460205 10.52414846420288 C 1.6853344440460205 10.52414846420288 6.953481912612915 15.792393207550049 6.953481912612915 15.792393207550049 C 6.953481912612915 15.792393207550049 8.319530963897705 14.426562309265137 8.319530963897705 14.426562309265137 C 8.319530963897705 14.426562309265137 5.392708778381348 11.499728679656982 5.392708778381348 11.499728679656982 C 5.392708778381348 11.499728679656982 10.855911493301392 11.499728679656982 10.855911493301392 11.499728679656982 C 13.5876784324646 11.499728679656982 15.733948469161987 9.35339641571045 15.733948469161987 6.621641635894775 C 15.733948469161987 3.889979839324951 13.5876784324646 1.743647575378418 10.855911493301392 1.743647575378418 Z"/></g></svg>