<svg version="1.1" xmlns="http://www.w3.org/2000/svg" xmlns:xlink="http://www.w3.org/1999/xlink" width="18" height="18"><defs/><g><path fill="rgb(0,0,0)" stroke="none" paint-order="stroke fill markers" fill-rule="evenodd" d=" M 2.0001068115234375 1.0000452995300293 C 2.0001068115234375 1.0000452995300293 16.00003981590271 1.0000452995300293 16.00003981590271 1.0000452995300293 C 16.55208921432495 1.0000452995300293 17.000153303146362 1.4480385780334473 17.000153303146362 1.9999871253967285 C 17.000153303146362 1.9999871253967285 17.000153303146362 11.999963283538818 17.000153303146362 11.999963283538818 C 17.000153303146362 12.55200481414795 16.55208921432495 12.999998092651367 16.00003981590271 12.999998092651367 C 16.00003981590271 12.999998092651367 11.000134706497192 12.999998092651367 11.000134706497192 12.999998092651367 C 11.000134706497192 12.999998092651367 5.0001161098480225 17.000044345855713 5.0001161098480225 17.000044345855713 C 5.0001161098480225 17.000044345855713 5.0001161098480225 12.999998092651367 5.0001161098480225 12.999998092651367 C 5.0001161098480225 12.999998092651367 2.0001068115234375 12.999998092651367 2.0001068115234375 12.999998092651367 C 1.4480574131011963 12.999998092651367 0.9999933242797852 12.55200481414795 0.9999933242797852 11.999963283538818 C 0.9999933242797852 11.999963283538818 0.9999933242797852 1.9999871253967285 0.9999933242797852 1.9999871253967285 C 0.9999933242797852 1.4480385780334473 1.4480574131011963 1.0000452995300293 2.0001068115234375 1.0000452995300293 Z"/></g></svg>